<svg width="31" height="13" viewBox="0 0 31 13" fill="none" xmlns="http://www.w3.org/2000/svg">
<path d="M1 6H0.5V7H1V6ZM30 6.5L30.3387 6.86785L30.7506 6.48863L30.3274 6.12206L30 6.5ZM26.3051 0.863932L26.1691 0.382803L25.2068 0.654938L25.3429 1.13607L26.3051 0.863932ZM25.362 11.8087L25.1708 12.2707L26.0947 12.6532L26.286 12.1913L25.362 11.8087ZM1 7H30V6H1V7ZM25.3429 1.13607C25.7295 2.5031 26.845 3.95197 27.8046 5.01943C28.2932 5.56293 28.7585 6.02597 29.1016 6.35316C29.2733 6.51692 29.4149 6.6471 29.5141 6.7368C29.5637 6.78165 29.6027 6.81641 29.6297 6.84022C29.6431 6.85212 29.6536 6.86129 29.6608 6.86761C29.6644 6.87077 29.6672 6.87322 29.6692 6.87495C29.6702 6.87581 29.671 6.87649 29.6715 6.87699C29.6718 6.87724 29.6721 6.87744 29.6723 6.8776C29.6723 6.87768 29.6724 6.87777 29.6725 6.8778C29.6726 6.87788 29.6726 6.87794 30 6.5C30.3274 6.12206 30.3274 6.1221 30.3274 6.12213C30.3274 6.12212 30.3274 6.12214 30.3274 6.12212C30.3274 6.1221 30.3273 6.12203 30.3272 6.12191C30.3269 6.12168 30.3264 6.12127 30.3258 6.12068C30.3244 6.11949 30.3222 6.11759 30.3193 6.11499C30.3133 6.10978 30.3042 6.10176 30.292 6.09104C30.2678 6.06959 30.2315 6.03733 30.1849 5.99511C30.0915 5.91066 29.9564 5.7865 29.7917 5.62947C29.462 5.31505 29.0156 4.87067 28.5483 4.35089C27.5962 3.29179 26.6238 1.99066 26.3051 0.863932L25.3429 1.13607ZM30 6.5C29.6613 6.13215 29.6613 6.13221 29.6612 6.13228C29.6612 6.13232 29.6611 6.1324 29.661 6.13247C29.6608 6.13262 29.6606 6.13282 29.6604 6.13305C29.6599 6.13353 29.6592 6.13417 29.6583 6.13499C29.6565 6.13662 29.654 6.13893 29.6508 6.14192C29.6444 6.14788 29.6351 6.15653 29.6231 6.16777C29.5992 6.19025 29.5644 6.22309 29.5201 6.26558C29.4314 6.35054 29.3043 6.47415 29.1488 6.63057C28.8378 6.94319 28.4118 7.3881 27.9502 7.91855C27.0352 8.96999 25.9477 10.3944 25.362 11.8087L26.286 12.1913C26.8081 10.9303 27.8085 9.60474 28.7046 8.575C29.1485 8.06486 29.5588 7.63638 29.8578 7.33576C30.0072 7.18556 30.1285 7.06758 30.2119 6.98762C30.2536 6.94764 30.2859 6.91719 30.3074 6.89698C30.3182 6.88688 30.3263 6.87934 30.3315 6.87445C30.3342 6.87201 30.3361 6.87023 30.3373 6.86913C30.3379 6.86857 30.3383 6.86819 30.3385 6.86798C30.3386 6.86787 30.3387 6.86781 30.3387 6.86778C30.3387 6.86777 30.3387 6.86779 30.3387 6.86779C30.3387 6.86781 30.3387 6.86785 30 6.5Z" fill="#077485"/>
</svg>
