<svg width="144" height="62" viewBox="0 0 144 62" fill="none" xmlns="http://www.w3.org/2000/svg">
<circle cx="31" cy="31" r="31" fill="#077485"/>
<path d="M12.056 30.736C12.056 28.5173 12.536 26.544 13.496 24.816C14.456 23.0667 15.7893 21.712 17.496 20.752C19.224 19.7707 21.176 19.28 23.352 19.28C26.0187 19.28 28.3013 19.984 30.2 21.392C32.0987 22.8 33.368 24.72 34.008 27.152H27.992C27.544 26.2133 26.904 25.4987 26.072 25.008C25.2613 24.5173 24.3333 24.272 23.288 24.272C21.6027 24.272 20.2373 24.8587 19.192 26.032C18.1467 27.2053 17.624 28.7733 17.624 30.736C17.624 32.6987 18.1467 34.2667 19.192 35.44C20.2373 36.6133 21.6027 37.2 23.288 37.2C24.3333 37.2 25.2613 36.9547 26.072 36.464C26.904 35.9733 27.544 35.2587 27.992 34.32H34.008C33.368 36.752 32.0987 38.672 30.2 40.08C28.3013 41.4667 26.0187 42.16 23.352 42.16C21.176 42.16 19.224 41.68 17.496 40.72C15.7893 39.7387 14.456 38.384 13.496 36.656C12.536 34.928 12.056 32.9547 12.056 30.736ZM42.831 37.776H49.999V42H37.359V19.536H42.831V37.776Z" fill="white"/>
<path d="M75.456 8.512C77.152 8.512 78.544 8.848 79.632 9.52C80.736 10.192 81.288 10.936 81.288 11.752C81.288 12.104 81.152 12.392 80.88 12.616C80.624 12.824 80.28 12.928 79.848 12.928C79.352 11.232 77.888 10.384 75.456 10.384C73.856 10.384 72.496 10.928 71.376 12.016C70.272 13.088 69.72 14.688 69.72 16.816C69.72 18.928 70.28 20.552 71.4 21.688C72.52 22.808 73.872 23.368 75.456 23.368C77.92 23.368 79.488 22.464 80.16 20.656C80.544 20.656 80.84 20.768 81.048 20.992C81.272 21.2 81.384 21.48 81.384 21.832C81.384 22.648 80.824 23.416 79.704 24.136C78.584 24.84 77.168 25.192 75.456 25.192C73.2 25.192 71.312 24.464 69.792 23.008C68.272 21.552 67.512 19.488 67.512 16.816C67.512 14.144 68.272 12.096 69.792 10.672C71.312 9.232 73.2 8.512 75.456 8.512ZM85.4933 14.56C86.6293 13.488 88.0213 12.952 89.6693 12.952C91.3173 12.952 92.7093 13.488 93.8453 14.56C94.9813 15.632 95.5493 17.144 95.5493 19.096C95.5493 21.048 94.9813 22.552 93.8453 23.608C92.7093 24.664 91.3173 25.192 89.6693 25.192C88.0213 25.192 86.6293 24.664 85.4933 23.608C84.3573 22.552 83.7893 21.048 83.7893 19.096C83.7893 17.144 84.3573 15.632 85.4933 14.56ZM92.4293 15.784C91.7253 15 90.8053 14.608 89.6693 14.608C88.5333 14.608 87.6053 15 86.8853 15.784C86.1813 16.552 85.8293 17.656 85.8293 19.096C85.8293 20.52 86.1813 21.624 86.8853 22.408C87.6053 23.176 88.5333 23.56 89.6693 23.56C90.8053 23.56 91.7253 23.176 92.4293 22.408C93.1493 21.624 93.5093 20.52 93.5093 19.096C93.5093 17.656 93.1493 16.552 92.4293 15.784ZM98.9385 13.192H99.1065C99.7145 13.192 100.019 13.488 100.019 14.08V20.248C100.019 22.44 100.987 23.536 102.923 23.536C103.659 23.536 104.275 23.32 104.771 22.888C105.667 22.12 106.115 20.968 106.115 19.432V14.08C106.115 13.488 106.427 13.192 107.051 13.192H107.219C107.539 13.192 107.763 13.264 107.891 13.408C108.035 13.536 108.107 13.76 108.107 14.08V24.112C108.107 24.432 108.035 24.664 107.891 24.808C107.747 24.936 107.515 25 107.195 25H107.051C106.427 25 106.115 24.704 106.115 24.112V22.912C105.891 23.424 105.411 23.936 104.675 24.448C103.955 24.944 103.179 25.192 102.347 25.192C99.4665 25.192 98.0265 23.584 98.0265 20.368V14.08C98.0265 13.488 98.3305 13.192 98.9385 13.192ZM112.633 13.168H112.777C113.385 13.168 113.689 13.464 113.689 14.056V15.352C113.961 14.744 114.393 14.2 114.985 13.72C115.593 13.24 116.241 13 116.929 13C117.617 13 118.137 13.136 118.489 13.408C118.857 13.68 119.041 14.016 119.041 14.416C119.041 14.8 118.873 15.104 118.537 15.328C118.041 14.912 117.513 14.704 116.953 14.704C115.961 14.704 115.177 15.112 114.601 15.928C114.025 16.728 113.737 17.736 113.737 18.952V24.088C113.737 24.408 113.665 24.64 113.521 24.784C113.377 24.928 113.145 25 112.825 25H112.633C112.313 25 112.081 24.928 111.937 24.784C111.793 24.64 111.721 24.408 111.721 24.088V14.056C111.721 13.464 112.025 13.168 112.633 13.168ZM120.991 16.456C120.991 15.368 121.455 14.512 122.383 13.888C123.327 13.248 124.375 12.928 125.527 12.928C126.679 12.928 127.567 13.096 128.191 13.432C128.831 13.752 129.151 14.136 129.151 14.584C129.151 15.032 128.839 15.36 128.215 15.568C128.103 15.312 127.791 15.072 127.279 14.848C126.783 14.624 126.167 14.512 125.431 14.512C124.695 14.512 124.087 14.656 123.607 14.944C123.143 15.216 122.911 15.608 122.911 16.12C122.911 16.616 123.087 17 123.439 17.272C123.791 17.544 124.615 17.832 125.911 18.136C127.223 18.424 128.223 18.848 128.911 19.408C129.599 19.968 129.943 20.752 129.943 21.76C129.943 22.768 129.479 23.592 128.551 24.232C127.623 24.856 126.479 25.168 125.119 25.168C123.775 25.168 122.695 25 121.879 24.664C121.079 24.312 120.679 23.856 120.679 23.296C120.679 22.736 120.943 22.328 121.471 22.072C121.695 22.504 122.127 22.872 122.767 23.176C123.407 23.48 124.207 23.632 125.167 23.632C126.127 23.632 126.855 23.456 127.351 23.104C127.863 22.752 128.119 22.32 128.119 21.808C128.119 21.28 127.887 20.872 127.423 20.584C126.975 20.28 126.087 19.984 124.759 19.696C123.447 19.408 122.487 19 121.879 18.472C121.287 17.928 120.991 17.256 120.991 16.456ZM131.836 19.12C131.836 17.12 132.396 15.592 133.516 14.536C134.636 13.48 135.924 12.952 137.38 12.952C138.836 12.952 139.988 13.328 140.836 14.08C141.684 14.816 142.108 15.736 142.108 16.84C142.108 17.944 141.668 18.808 140.788 19.432C139.924 20.04 138.804 20.344 137.428 20.344C136.052 20.344 134.812 20.128 133.708 19.696C133.708 20.864 134.108 21.808 134.908 22.528C135.708 23.232 136.684 23.584 137.836 23.584C139.628 23.584 140.748 23.032 141.196 21.928C141.468 21.928 141.7 22.008 141.892 22.168C142.084 22.312 142.18 22.528 142.18 22.816C142.18 23.376 141.764 23.912 140.932 24.424C140.116 24.936 139.076 25.192 137.812 25.192C136.116 25.192 134.692 24.68 133.54 23.656C132.404 22.632 131.836 21.12 131.836 19.12ZM140.284 16.768C140.284 16.144 140.012 15.616 139.468 15.184C138.94 14.752 138.204 14.536 137.26 14.536C136.332 14.536 135.516 14.912 134.812 15.664C134.108 16.416 133.748 17.264 133.732 18.208C134.884 18.592 136.028 18.784 137.164 18.784C139.244 18.784 140.284 18.112 140.284 16.768ZM69.36 36.704H69.576C70.2 36.704 70.512 37.008 70.512 37.616V51.2H77.904C78.512 51.2 78.816 51.504 78.816 52.112C78.816 52.704 78.512 53 77.904 53H69.36C68.736 53 68.424 52.696 68.424 52.088V37.616C68.424 37.008 68.736 36.704 69.36 36.704ZM85.6161 40.976C89.0081 40.976 90.7041 42.552 90.7041 45.704V50.456C90.7041 51.336 91.0401 51.896 91.7121 52.136C91.4721 52.744 91.0241 53.048 90.3681 53.048C89.8881 53.048 89.5041 52.88 89.2161 52.544C88.9441 52.192 88.8081 51.736 88.8081 51.176C87.8001 52.52 86.4961 53.192 84.8961 53.192C83.6001 53.192 82.5761 52.864 81.8241 52.208C81.0881 51.536 80.7201 50.64 80.7201 49.52C80.7201 48.384 81.1521 47.464 82.0161 46.76C82.8961 46.056 84.0801 45.704 85.5681 45.704C86.4641 45.704 87.2161 45.8 87.8241 45.992C88.3201 46.168 88.6161 46.28 88.7121 46.328V45.272C88.7121 44.296 88.4641 43.608 87.9681 43.208C87.4721 42.792 86.7201 42.584 85.7121 42.584C84.2881 42.584 83.1841 43.128 82.4001 44.216C81.7281 44.12 81.3921 43.808 81.3921 43.28C81.3921 42.672 81.8081 42.136 82.6401 41.672C83.4721 41.208 84.4641 40.976 85.6161 40.976ZM88.7121 47.864C87.7041 47.416 86.7121 47.192 85.7361 47.192C84.7601 47.192 84.0081 47.4 83.4801 47.816C82.9521 48.232 82.6881 48.776 82.6881 49.448C82.6881 50.104 82.9121 50.632 83.3601 51.032C83.8241 51.416 84.4961 51.608 85.3761 51.608C86.2721 51.608 87.0481 51.288 87.7041 50.648C88.3761 50.008 88.7121 49.232 88.7121 48.32V47.864ZM95.1244 36.176H95.3164C95.9244 36.176 96.2284 36.472 96.2284 37.064V42.8C96.5484 42.256 97.0444 41.808 97.7164 41.456C98.3884 41.104 99.1244 40.928 99.9244 40.928C101.412 40.928 102.612 41.432 103.524 42.44C104.452 43.432 104.916 44.952 104.916 47C104.916 49.032 104.372 50.576 103.284 51.632C102.196 52.672 100.9 53.192 99.3964 53.192C97.9084 53.192 96.4204 52.912 94.9324 52.352C94.6924 52.256 94.5164 52.136 94.4044 51.992C94.2924 51.848 94.2364 51.632 94.2364 51.344V37.064C94.2364 36.472 94.5324 36.176 95.1244 36.176ZM99.7084 42.632C98.7004 42.632 97.8684 43.032 97.2124 43.832C96.5564 44.616 96.2284 45.656 96.2284 46.952V50.792C97.1244 51.272 98.1324 51.512 99.2524 51.512C100.372 51.512 101.26 51.136 101.916 50.384C102.588 49.632 102.924 48.504 102.924 47C102.924 44.088 101.852 42.632 99.7084 42.632Z" fill="#077485"/>
</svg>
