<svg width="62" height="62" viewBox="0 0 62 62" fill="none" xmlns="http://www.w3.org/2000/svg">
<circle cx="31" cy="31" r="31" fill="#077485"/>
<path d="M12.056 30.736C12.056 28.5173 12.536 26.544 13.496 24.816C14.456 23.0667 15.7893 21.712 17.496 20.752C19.224 19.7707 21.176 19.28 23.352 19.28C26.0187 19.28 28.3013 19.984 30.2 21.392C32.0987 22.8 33.368 24.72 34.008 27.152H27.992C27.544 26.2133 26.904 25.4987 26.072 25.008C25.2613 24.5173 24.3333 24.272 23.288 24.272C21.6027 24.272 20.2373 24.8587 19.192 26.032C18.1467 27.2053 17.624 28.7733 17.624 30.736C17.624 32.6987 18.1467 34.2667 19.192 35.44C20.2373 36.6133 21.6027 37.2 23.288 37.2C24.3333 37.2 25.2613 36.9547 26.072 36.464C26.904 35.9733 27.544 35.2587 27.992 34.32H34.008C33.368 36.752 32.0987 38.672 30.2 40.08C28.3013 41.4667 26.0187 42.16 23.352 42.16C21.176 42.16 19.224 41.68 17.496 40.72C15.7893 39.7387 14.456 38.384 13.496 36.656C12.536 34.928 12.056 32.9547 12.056 30.736ZM42.831 37.776H49.999V42H37.359V19.536H42.831V37.776Z" fill="white"/>
</svg>
